<?xml version="1.0" standalone="no"?>
<!DOCTYPE svg PUBLIC "-//W3C//DTD SVG 1.1//EN" "http://www.w3.org/Graphics/SVG/1.1/DTD/svg11.dtd" >
<svg xmlns="http://www.w3.org/2000/svg" xmlns:xlink="http://www.w3.org/1999/xlink" version="1.1">
<metadata></metadata>
<defs>
<font id="mfgzregular" horiz-adv-x="1762" >
<font-face units-per-em="2048" ascent="1920" descent="-128" />
<missing-glyph horiz-adv-x="1024" />
<glyph horiz-adv-x="0" />
<glyph horiz-adv-x="0" />
<glyph horiz-adv-x="682" />
<glyph horiz-adv-x="0" />
<glyph unicode=" "  horiz-adv-x="1024" />
<glyph unicode="&#x09;" horiz-adv-x="1024" />
<glyph unicode="&#xa0;" horiz-adv-x="1024" />
<glyph unicode="1" horiz-adv-x="2804" d="M208 994l198 208l746 -714l1194 1264l206 -196l-1390 -1472z" />
<glyph unicode="2" horiz-adv-x="1962" d="M86 810h318q28 -188 164 -326q66 -66 150 -109t178 -57v-318h170v318q190 28 328 166t164 326h318v172h-318q-14 92 -56 176t-108 152q-140 138 -328 164v318h-170v-318q-188 -28 -326 -164q-66 -66 -109 -150t-57 -178h-318v-172zM576 810h320v-318q-120 26 -207 113 t-113 205zM576 982q26 118 113 205t207 113v-318h-320zM1066 492v318h318q-24 -118 -111 -205t-207 -113zM1066 982v318q120 -26 207 -113t111 -205h-318z" />
<glyph unicode="3" horiz-adv-x="1962" d="M68 572l68 -68h276l500 -410l110 54v1310l-110 54l-500 -410h-276l-68 -68v-462zM1214 124q138 0 263 53t217 147q96 96 147 219t51 259q0 138 -51 261t-147 219t-220 148t-260 52v-136q108 0 208 -42t176 -118q78 -78 118 -175t40 -209q0 -108 -41 -206t-117 -176 q-76 -76 -176 -118t-208 -42v-136zM1214 482q86 0 160 43t118 117q42 76 42 160q0 88 -43 162t-117 118q-74 42 -160 42v-136q76 0 130 -54t54 -132q0 -76 -54 -130t-130 -54v-136z" />
<glyph unicode="4" horiz-adv-x="2250" d="M192 366v1038h1164v-1038h-1164zM1568 656l34 -60l382 -226l102 56l18 938l-104 58l-400 -242l-32 -58v-466z" />
<glyph unicode="5" horiz-adv-x="2064" d="M236 100h1516v548h-218v-330h-1080v1088h310v216h-528v-1522zM874 898l154 -154l510 510v-296h218v668h-668v-218h296z" />
<glyph unicode="6" horiz-adv-x="1894" d="M262 696l684 -684l684 684l-178 178l-380 -380v1108h-252v-1108l-378 380z" />
<glyph unicode="7" horiz-adv-x="1894" d="M652 322l764 536l-764 538v-1074z" />
<glyph unicode="8" horiz-adv-x="1894" d="M570 320v1076h274v-1076h-274zM1130 320v1076h274v-1076h-274z" />
<glyph unicode="9" horiz-adv-x="2110" d="M124 898q0 -190 71 -360t203 -298q128 -128 299 -200t357 -72q188 0 358 71t302 201q128 128 200 300t72 358t-72 358t-200 300q-132 130 -302 201t-358 71v-100q168 0 320 -63t268 -179t179 -268t63 -320t-63 -319t-179 -267t-269 -180t-319 -64q-164 0 -316 64 t-268 180t-180 267t-64 319q0 244 127 444t347 306l-42 -268l100 -14l66 420l-422 68l-16 -100l228 -36q-226 -120 -358 -340t-132 -480zM546 812q0 -54 30 -82t84 -28t86 28t32 72q0 34 -18 54t-44 26q22 4 36 18l10 16q8 8 8 36q0 42 -31 64t-73 22t-75 -26t-39 -68 l64 -14l4 28q2 26 44 26q20 0 31 -12t11 -30q0 -20 -12 -29t-28 -9h-28v-50h18q10 0 34 -6q22 -16 22 -42q0 -24 -13 -38t-37 -14t-38 14t-14 34v10h-64zM844 860q0 -70 24 -112q34 -46 90 -46q48 0 80 31t32 81q0 48 -27 75t-67 27q-44 0 -70 -32q4 102 58 102q14 0 26 -10 t14 -28l62 8q-2 12 -14 40q-30 42 -86 42q-122 0 -122 -178zM912 808q0 24 13 39t37 15q22 0 34 -15t12 -39q0 -52 -48 -52t-48 52zM1136 868q0 -82 24 -116q12 -20 37 -35t59 -15q82 0 106 70q14 40 14 98q0 80 -28 120q-26 48 -90 48q-30 0 -55 -13t-37 -33 q-30 -44 -30 -124zM1200 866q0 60 12 89t46 29q30 0 42 -27t12 -87q0 -62 -11 -88t-45 -26q-32 0 -44 28t-12 82zM1428 988q0 -34 25 -59t59 -25t59 25t25 59t-25 59t-59 25t-59 -25t-25 -59zM1478 988q0 14 10 25t24 11t24 -11t10 -25t-10 -24t-24 -10t-24 10t-10 24z" />
<glyph unicode="A" horiz-adv-x="1960" d="M48 728v572q0 48 34 82t84 34h342q48 0 81 -34t33 -82v-572h-114v-686h-144v686h-58v-686h-140v686h-118zM166 1702q0 -72 50 -122t120 -50q72 0 122 50t50 122q0 70 -50 120t-122 50q-70 0 -120 -50t-50 -120zM850 1022l240 366q16 28 48 28h456q36 0 48 -28l240 -366 l-90 -64l-194 256l-72 -158l242 -442h-220l-40 -572h-112v572h-60v-572h-112l-40 572h-218l240 442l-68 158l-198 -256zM1194 1702q0 -72 51 -122t123 -50q70 0 120 50t50 122q0 70 -50 120t-120 50q-72 0 -123 -50t-51 -120z" />
<glyph unicode="B" horiz-adv-x="1800" d="M270 1266h346v-400h408v-412h404v-404h118v532h-402v404h-408v404h-466v-124z" />
<glyph unicode="C" horiz-adv-x="1600" d="M52 -20h1492v1126h-1492v-1126zM172 102v884h1252v-884h-1252zM258 1618l246 246l246 -246l-86 -84l-100 100v-362h-120v362l-102 -100zM390 306h120v474h-120v-474zM738 306h120v474h-120v-474zM846 1504l84 86l100 -102v362h122v-362l100 102l86 -86l-246 -246z M1086 306h122v474h-122v-474z" />
<glyph unicode="D" horiz-adv-x="1900" d="M68 876v730h1502q120 0 193 -72t73 -192v-204q0 -120 -73 -191t-193 -71h-146v-8q0 -226 -128 -359t-364 -133h-370q-242 0 -374 142q-54 60 -83 135t-33 129q-4 56 -4 94zM78 -4v168h1674v-168h-1674zM1424 1040h146q48 0 73 22t25 76v204q0 54 -25 76t-73 22h-146v-400 z" />
<glyph unicode="E" horiz-adv-x="2000" d="M70 66l36 328h1810l36 -328q4 -30 -16 -52t-52 -22h-1746q-32 0 -52 22t-16 52zM114 462l90 814q4 26 23 43t45 17h268v-136q0 -56 39 -95t95 -39t96 39t40 95v136h402v-136q0 -56 39 -95t95 -39t96 39t40 95v136h268q26 0 46 -17t22 -43l90 -814h-1794zM608 1200v270 q0 110 54 202t146 146t202 54t203 -54t147 -146t54 -202v-270q0 -28 -20 -47t-48 -19q-26 0 -46 20t-20 46v270q0 72 -37 134t-99 98t-134 36t-134 -36t-98 -98t-36 -134v-270q0 -28 -20 -47t-48 -19q-26 0 -46 20t-20 46z" />
<glyph unicode="F" horiz-adv-x="2000" d="M42 292q0 -74 47 -142t132 -111t195 -43h1150q110 0 195 43t131 111t46 142q0 218 -186 338q-32 46 -149 151t-303 265q-200 168 -250 218q-80 52 -116 101t-36 85q0 22 13 68t38 82t59 36q68 0 118 -41t80 -90t30 -55q0 -22 23 -38t59 -16q32 0 62 14q22 0 39 23t17 51 q0 26 -14 42q0 26 -55 100t-148 135t-211 61q-102 0 -177 -60t-114 -147t-39 -165q0 -62 25 -113t85 -135l34 -48q-176 -144 -379 -303t-255 -187q-50 -50 -79 -89t-48 -108t-19 -175zM264 292q0 186 76 186q38 38 268 234q306 264 366 324q80 -62 348 -292 q270 -230 320 -266q52 -52 64 -86t12 -100q0 -30 -38 -53t-114 -23h-1150q-76 0 -114 23t-38 53z" />
<glyph unicode="G" horiz-adv-x="1200" d="M88 1084h1026l-190 -1072h-652zM232 964l58 -334h622l58 334h-738zM428 1480q0 78 38 177t86 186t48 83q0 4 43 -79t78 -180t35 -175q0 -160 -168 -160q-160 0 -160 148z" />
<glyph unicode="a" horiz-adv-x="5520" d="M0 -128h644v850h-644v-850zM0 806h4648v1120h-4648v-1120zM224 344q0 56 52 56h138v-56h-122q-12 0 -18 -5t-6 -21q0 -28 28 -28h118v-56h-186v56h16q-20 18 -20 54zM228 114v56h186v-56h-18q18 -16 20 -50l-48 -2l-2 6q-2 26 -8 36t-22 10h-108zM228 482v54h150v28h34 v-28h18q50 0 50 -54q0 -16 -4 -36h-40v16q0 12 -2 16t-12 4h-10v-34h-34v34h-150zM228 1034v686h252l120 -510h2l124 510h248v-686h-160v532h-2l-136 -532h-150l-140 532h-2v-532h-156zM440 254v52h44v-52h-44zM440 328v52h44v-52h-44zM726 -128h3922v850h-3922v-850z M930 316q0 106 56 169t158 63q66 0 118 -28t84 -80l-92 -40q-32 56 -102 56q-54 0 -83 -34t-29 -104q0 -66 29 -102t83 -36q36 0 64 21t32 57h-96v86h188v-244h-84v40q-40 -52 -126 -52q-96 0 -148 61t-52 167zM1162 1168v378h150v-334q0 -38 16 -54t56 -16q38 0 60 20 t22 60v324h148v-512h-148v46q-54 -60 -150 -60q-154 0 -154 148zM1424 254q0 84 43 132t117 48q80 0 120 -52t40 -140h-224q0 -40 21 -61t51 -21q22 0 38 12t40 46l72 -36q-44 -90 -158 -90q-72 0 -116 45t-44 117zM1520 302h128q-2 30 -20 46t-44 16q-24 0 -43 -17t-21 -45 zM1752 1122l94 80q38 -36 77 -54t85 -18q34 0 58 12t24 40q0 60 -152 62q-152 0 -152 136q0 86 61 133t155 47q114 0 226 -76l-92 -90q-22 24 -62 40t-78 16q-30 0 -48 -10t-18 -30q0 -64 143 -64h9q152 0 152 -142q0 -90 -65 -137t-167 -47q-78 0 -134 23t-116 79z M1810 156l60 52q24 -24 49 -36t55 -12q22 0 37 8t15 26q0 38 -96 40q-98 0 -98 86q0 54 40 84t98 30q74 0 144 -46l-58 -58q-16 16 -41 25t-49 9q-18 0 -30 -6t-12 -18q0 -42 96 -42t96 -90q0 -58 -40 -87t-106 -29q-52 0 -88 15t-72 49zM2178 360v60h48v94h94v-94h58v-60 h-58v-158q0 -34 30 -34q14 0 18 2h12v-74q-36 -4 -62 -4q-50 0 -71 25t-21 73v170h-48zM2358 1274q0 136 67 211t183 75q126 0 189 -81t63 -219h-352q0 -62 33 -96t79 -34q38 0 63 19t61 71l112 -58q-76 -142 -248 -142q-114 0 -182 70t-68 184zM2454 188q0 54 40 81t128 39 l34 6v26q0 18 -12 27t-32 9q-24 0 -36 -10t-14 -34h-92q4 102 134 102q74 0 109 -21t35 -73v-172q0 -38 10 -68h-88l-4 18l-4 16q-12 -18 -41 -30t-57 -12q-50 0 -80 25t-30 71zM2506 1352h204q-4 48 -33 73t-69 25q-38 0 -68 -27t-34 -71zM2546 198q0 -18 13 -28t31 -10 q30 0 48 20t18 56v22l-64 -18q-46 -12 -46 -42zM2862 100v436h94v-436h-94zM3020 1168v378h150v-334q0 -38 16 -54t56 -16q36 0 58 20t22 60v324h150v-512h-150v46q-24 -30 -64 -45t-84 -15q-154 0 -154 148zM3038 360v60h46v94h96v-94h56v-60h-56v-158q0 -34 30 -34 q12 0 16 2h12v-74q-36 -4 -60 -4q-52 0 -73 21t-21 65v172zM3326 186v240h96v-214q0 -44 46 -44q24 0 37 14t13 38v206h96v-326h-96v28q-16 -18 -42 -27t-52 -9q-98 0 -98 94zM3664 1034v512h150v-46q24 30 64 45t84 15q84 0 136 -70q70 70 164 70q64 0 111 -32t47 -104 v-390h-150v300q0 54 -18 79t-60 25q-36 0 -56 -24t-20 -66v-314h-150v320q0 42 -16 63t-56 21q-80 0 -80 -86v-318h-150zM3728 100v326h96v-30q30 38 94 38q98 0 98 -94v-240h-94v204q0 54 -48 54q-24 0 -37 -15t-13 -39v-204h-96zM4110 276q0 66 35 112t93 46t92 -34v26h90 v-326q0 -108 -156 -108q-150 0 -150 114h98q0 -52 56 -52q32 0 45 11t13 45v38q-12 -12 -37 -20t-51 -8q-64 0 -96 43t-32 113zM4206 276q0 -86 58 -86q38 0 51 22t13 64q0 44 -17 66t-45 22q-60 0 -60 -88zM4730 -128h790v2054h-790v-2054zM4930 494v74h64v-74h-64z M4930 600v74h64v-74h-64zM4938 100v288h68l216 -194v194h68v-304h-64l-220 196v-180h-68zM4938 1016v78h60v-78h-60zM4938 1486v76h114q-16 12 -24 32t-8 42q0 82 86 82h184v-78h-158q-48 0 -48 -38q0 -10 12 -26q8 -14 48 -14h146v-76h-352zM5020 1294q0 84 66 120l30 -60 q-36 -20 -36 -50t21 -45t59 -15q36 0 57 15t21 45q0 38 -38 56l28 54q32 -18 51 -50t19 -68q0 -60 -37 -96t-101 -36t-102 37t-38 93zM5026 944h68l2 -8q4 -40 12 -53t30 -13h152v-76h-262v76h26q-24 28 -28 74zM5028 466v78h172q18 0 27 8t9 30q0 40 -42 40h-166v78h262 v-78h-22q30 -20 30 -76q0 -80 -76 -80h-194zM5028 1016v78h264v-78h-264z" />
<glyph unicode="b" horiz-adv-x="2136" d="M310 1064q0 -118 45 -226t125 -186q84 -84 189 -128t223 -44q190 0 348 116l422 -422l136 136l-424 424q102 150 102 330q0 116 -44 222t-126 190q-80 80 -188 125t-226 45t-225 -45t-187 -125t-125 -187t-45 -225zM502 1064q0 78 31 150t85 126t125 84t149 30t150 -30 t128 -84q54 -54 83 -126t29 -150q0 -164 -112 -276q-114 -114 -278 -114q-78 0 -150 30t-124 84q-56 54 -86 125t-30 151z" />
<glyph unicode="c" horiz-adv-x="2136" d="M186 838v114q0 62 39 102t97 44q26 100 74 182q-36 40 -36 94q0 46 20 72l24 32l80 82q50 44 102 44q54 0 96 -36q98 54 182 74q4 60 47 97t99 39h114q62 -2 102 -41t44 -95q100 -26 182 -74q40 36 94 36q44 0 70 -20q28 -22 34 -24l80 -82q44 -42 44 -100q0 -26 -9 -53 t-27 -45q46 -76 76 -182q60 -4 97 -46t37 -100v-112q0 -62 -39 -102t-95 -44q-30 -106 -76 -182q36 -40 36 -94q0 -36 -18 -69t-26 -35l-80 -82q-50 -44 -102 -44q-54 0 -96 36q-82 -48 -182 -74q-4 -60 -46 -97t-100 -39h-114q-60 2 -101 41t-45 95q-84 20 -180 74 q-38 -36 -94 -36q-46 0 -72 20q-28 22 -34 24l-80 82q-44 38 -44 100q0 56 36 98q-54 96 -74 182q-60 4 -98 46t-38 98zM346 852h106l12 -64q24 -128 100 -242l38 -54l-74 -76l60 -60l74 74l56 -38q110 -76 240 -98l66 -12v-106h86v106l66 10q128 24 242 100l54 38l74 -74 l62 60l-74 76l38 54q70 102 98 240l12 66h106v88h-106l-12 64q-24 140 -98 242l-38 54l74 76l-62 60l-74 -74l-54 38q-114 76 -242 100l-66 10v106h-86v-106l-66 -12q-130 -22 -240 -98l-56 -38l-74 74l-60 -60l74 -76l-38 -54q-76 -114 -100 -242l-12 -64h-106v-88z M712 896q0 96 48 178t130 130t178 48t178 -47t130 -129q48 -80 48 -180q0 -96 -47 -178t-131 -130q-80 -48 -178 -48q-96 0 -178 47t-130 131q-48 82 -48 178zM872 896q0 -80 57 -138t139 -58q80 0 138 58t58 138t-58 138t-138 58q-82 0 -139 -58t-57 -138z" />
<glyph unicode="d" horiz-adv-x="1336" d="M226 570l112 -112l326 324l326 -324l112 112l-326 326l326 326l-112 112l-326 -324l-326 324l-112 -112l324 -326z" />
<glyph unicode="e" d="M282 810h992l-314 -314l122 -120l520 520l-520 520l-122 -120l314 -314h-992v-172z" />
<glyph unicode="f" d="M162 896l520 -520l120 120l-314 314h992v172h-992l314 314l-120 120z" />
<glyph unicode="g" horiz-adv-x="1336" d="M280 1108q0 -230 206 -562q64 -110 126 -188l56 -74l56 74q162 216 258 444q74 162 74 306q0 70 -23 138t-67 122q-54 66 -130 103t-168 37t-168 -37t-130 -103q-44 -54 -67 -122t-23 -138zM510 1084q0 66 46 112t112 46t112 -46t46 -112t-46 -112t-112 -46t-112 46 t-46 112z" />
<glyph unicode="h" horiz-adv-x="2030" d="M122 902q0 182 70 349t198 295t294 197t348 69q184 0 351 -70t293 -196t196 -293t70 -351q0 -182 -69 -348t-197 -294t-295 -198t-349 -70t-348 70t-294 198t-198 294t-70 348zM268 902q0 -154 58 -293t166 -247t247 -166t293 -58t293 58t247 166t166 247t58 293t-58 293 t-166 247t-247 166t-293 58t-293 -58t-247 -166t-166 -247t-58 -293zM626 794l406 -404l406 404l-106 106l-226 -224v658h-148v-658l-226 224z" />
<glyph unicode="i" horiz-adv-x="2030" d="M122 896q0 182 70 349t198 295t294 197t348 69q184 0 351 -70t293 -196t196 -293t70 -351q0 -182 -69 -348t-197 -294t-295 -198t-349 -70t-348 70t-294 198t-198 294t-70 348zM268 896q0 -154 58 -293t166 -247t247 -166t293 -58t293 58t247 166t166 247t58 293t-58 293 t-166 247t-247 166t-293 58t-293 -58t-247 -166t-166 -247t-58 -293zM886 578l454 318l-454 318v-636z" />
<glyph unicode="j" horiz-adv-x="1962" d="M116 192v858h170v-686h1374v686h170v-858h-1714zM550 1068l412 -414l414 414l-2 2h-238l-88 -88v670h-172v-670l-86 88h-230v8z" />
<glyph unicode="k" d="M212 924q0 -98 70 -168t168 -70q94 0 156 60l382 -268q-14 -40 -14 -82q0 -98 70 -168t168 -70t168 70t70 168t-70 168t-168 70q-62 0 -120 -32l-406 284q0 14 2 18t2 20t-2 20t-2 18l404 284q52 -36 122 -36q98 0 168 70t70 168q0 100 -70 170t-168 70t-168 -70 t-70 -170q0 -38 14 -78l-382 -266q-70 58 -156 58q-98 0 -168 -70t-70 -168z" />
<glyph unicode="l" d="M74 1176q0 134 66 248t181 181t251 67q80 0 155 -42t155 -122q78 80 152 122t158 42q136 0 249 -66t180 -181t67 -251q0 -224 -162 -368l-646 -636l-646 638q-160 148 -160 368zM234 1176q0 -148 110 -252l536 -528l536 526q112 100 112 254q0 92 -45 169t-122 122 t-169 45q-56 0 -114 -43t-138 -133l-58 -64l-60 64q-80 90 -138 133t-112 43q-94 0 -171 -46t-122 -123t-45 -167z" />
<glyph unicode="m" d="M172 838h624v-624h172v624h624v172h-624v624h-172v-624h-624v-172z" />
<glyph unicode="n" d="M172 838v172h1420v-172h-1420z" />
<glyph unicode="o" horiz-adv-x="1894" d="M344 1116l174 174l480 -480l480 480l174 -174l-654 -654z" />
<glyph unicode="p" horiz-adv-x="1894" d="M344 722l654 656l654 -656l-174 -174l-480 480l-480 -480z" />
<glyph unicode="q" horiz-adv-x="1894" d="M540 920l654 654l174 -174l-480 -480l480 -480l-174 -176z" />
<glyph unicode="r" horiz-adv-x="1894" d="M626 440l480 480l-480 480l176 174l654 -654l-654 -656z" />
<glyph unicode="s" d="M362 1096l120 -122l314 314v-990h172v990l312 -314l122 122l-520 520z" />
<glyph unicode="t" d="M362 696l520 -520l520 520l-122 122l-312 -314v992h-172v-992l-314 314z" />
<glyph unicode="u" horiz-adv-x="1502" d="M330 830v290h246v210q0 94 32 164q26 70 76 120t116 72t154 22h142l48 -4l30 -4v-254h-150q-36 0 -69 -12t-49 -32q-18 -30 -24 -50t-6 -48v-184h290l-36 -290h-254v-746h-300v746h-246z" />
<glyph unicode="v" horiz-adv-x="2044" d="M204 896q0 164 66 316q72 154 176 260q106 104 260 176q152 66 316 66q158 0 309 -65t267 -177q104 -106 176 -260q66 -152 66 -316q0 -166 -66 -326q-72 -156 -180 -263t-256 -167q-150 -62 -316 -62h-58l-60 6q-22 2 -36 4t-22 4q-24 2 -52 14l22 38l12 24l18 44l10 26 l16 44q0 12 14 52l12 36q6 14 10 38q4 20 12 46l14 56q30 -52 70 -76l30 -10q40 -16 66 -18q6 -2 28 -2q192 0 320 162q128 166 128 400q0 86 -39 174t-107 156t-163 102t-209 34q-144 0 -257 -44t-187 -118q-72 -72 -109 -164t-37 -184q0 -112 40 -188q30 -48 56 -73 t72 -47q8 -8 12 -8l14 4q8 2 12 10q6 4 6 12v18l4 18l4 18q0 6 10 16v22q0 4 -6 10l-12 12q-8 8 -18 26l-8 20q-8 20 -16 46t-10 42q-2 6 -2 24q0 84 32 150q24 64 78 122q48 56 124 88q72 36 172 36q72 0 144 -26q70 -30 111 -66t65 -96q22 -66 22 -128q0 -80 -22 -168 q-34 -106 -58 -152t-74 -84q-48 -36 -110 -36q-58 0 -106 48q-18 28 -22 54l-2 18q0 24 8 38l8 40q4 28 8 44l12 40q4 24 10 34q10 28 21 70t11 62q0 28 -9 51t-23 37q-8 16 -31 26t-53 10q-72 0 -108 -58q-22 -24 -36 -69t-14 -85q0 -18 2 -24l8 -44l10 -36q2 -4 8 -18 l-18 -76q-2 -10 -4 -23t-6 -25l-16 -78l-18 -76q-8 -42 -32 -134l-12 -36q0 -12 -4 -48l-4 -50v-96q-218 94 -356 298q-138 198 -138 458z" />
<glyph unicode="w" horiz-adv-x="2592" d="M174 926q0 -146 55 -277t155 -229q98 -100 229 -155t277 -55q204 0 351 79t233 221q112 180 112 432q0 78 -8 126h-688v-284h388q-52 -150 -139 -217t-249 -67q-170 0 -296 126q-60 60 -91 136t-31 164q0 86 32 163t90 137q60 60 136 93t160 33q86 0 150 -26t128 -80 q44 44 68 74t136 136q-98 90 -222 138t-260 48q-146 0 -277 -55t-229 -155q-102 -102 -156 -232t-54 -274zM1748 876h256v-256h176v256h248v178h-248v248h-176v-248h-256v-178z" />
<glyph unicode="x" horiz-adv-x="2102" d="M302 424q114 -72 244 -110t264 -38q216 0 394 79t306 227q116 132 179 299t63 337v42q102 76 164 172q-90 -40 -190 -52q52 30 90 78t56 104q-90 -52 -210 -80q-46 52 -109 78t-133 26q-62 0 -121 -23t-107 -67q-102 -96 -102 -240q0 -46 8 -76q-202 12 -377 100 t-307 246q-44 -74 -44 -166q0 -82 39 -155t109 -121q-80 4 -150 42v-4q0 -118 74 -210t190 -116q-40 -12 -80 -12q-28 0 -68 8q32 -102 117 -165t191 -65q-178 -142 -410 -142z" />
<glyph unicode="y" horiz-adv-x="1930" d="M266 788q0 -120 3 -181t13 -113q18 -84 56 -146q20 -30 51 -61t63 -51q60 -38 140 -55t212 -17q20 -2 194 -2h152q96 0 149 3t103 15q84 18 146 56q32 20 63 51t49 61q38 64 53 132t19 220v394l-4 104q-8 106 -36 180t-84 128q-116 116 -308 118l-104 6h-394 q-154 -4 -221 -19t-129 -55q-32 -20 -63 -51t-51 -61q-38 -64 -54 -140t-16 -210q-2 -22 -2 -198v-108zM622 896q0 100 51 187t137 139q86 50 188 50t189 -51t139 -137q50 -86 50 -188t-50 -187t-138 -137t-190 -52q-100 0 -186 51t-138 137q-52 88 -52 188zM778 896 q0 -92 65 -156t155 -64q92 0 156 64t64 156t-64 156t-156 64q-90 0 -155 -64t-65 -156zM1302 1288q0 36 26 62t62 26t62 -26t26 -62q0 -38 -26 -63t-62 -25t-62 25t-26 63z" />
<glyph unicode="z" horiz-adv-x="1962" d="M204 38h942v446h-172v-274h-600v1372h600v-262h172v434h-942v-1716zM760 810h670l-84 -84v-242l412 412l-412 412v-242l84 -84h-670v-172zM1344 482l2 2h-2v-2z" />
<glyph unicode="&#x2000;" horiz-adv-x="963" />
<glyph unicode="&#x2001;" horiz-adv-x="1926" />
<glyph unicode="&#x2002;" horiz-adv-x="963" />
<glyph unicode="&#x2003;" horiz-adv-x="1926" />
<glyph unicode="&#x2004;" horiz-adv-x="642" />
<glyph unicode="&#x2005;" horiz-adv-x="481" />
<glyph unicode="&#x2006;" horiz-adv-x="321" />
<glyph unicode="&#x2007;" horiz-adv-x="321" />
<glyph unicode="&#x2008;" horiz-adv-x="240" />
<glyph unicode="&#x2009;" horiz-adv-x="385" />
<glyph unicode="&#x200a;" horiz-adv-x="107" />
<glyph unicode="&#x202f;" horiz-adv-x="385" />
<glyph unicode="&#x205f;" horiz-adv-x="481" />
<glyph unicode="&#x25fc;" horiz-adv-x="1590" d="M0 0v1590h1590v-1590h-1590z" />
</font>
</defs>
</svg>
